<?xml version="1.0" standalone="no"?><!DOCTYPE svg PUBLIC "-//W3C//DTD SVG 1.1//EN" "http://www.w3.org/Graphics/SVG/1.1/DTD/svg11.dtd"><svg t="1579058745092" class="icon" viewBox="0 0 1024 1024" version="1.1" xmlns="http://www.w3.org/2000/svg" p-id="2565" xmlns:xlink="http://www.w3.org/1999/xlink" width="200" height="200"><defs><style type="text/css"></style></defs><path d="M508.342857 925.257143c-226.742857 0-411.428571-184.685714-411.428571-411.428572S281.6 102.4 508.342857 102.4 919.771429 287.085714 919.771429 513.828571 735.085714 925.257143 508.342857 925.257143z m190.171429-535.771429v351.085715H320V389.485714h-42.057143v393.142857h460.8V389.485714h-40.228571z m84.114285-27.428571v-42.057143H235.885714v42.057143h546.742857z m-418.742857-60.342857h40.228572V257.828571h210.285714v43.885715h40.228571V215.771429H363.885714v85.942857z m60.342857 124.342857h-42.057142v252.342857h42.057142V426.057143z m106.057143 0h-42.057143v252.342857H530.285714V426.057143z m104.228572 0h-42.057143v252.342857h42.057143V426.057143z" fill="#e00d2f" p-id="2566"></path></svg>